# xmcd
#
# Track frame offsets:
#	150
#	12241
#	22144
#	36433
#	47094
#	58625
#	69292
#	79811
#	90974
#	102369
#	112419
#	124511
#	134999
#	146878
#	156881
#	166495
#	177165
#	190051
#	203860
#	217493
#
# Disc length: 3040 seconds
#
# Revision: 1
# Processed by: cddbd v1.5.2PL0 Copyright (c) Steve Scherf et al.
# Submitted via: audiograbber 1.83.01
#
DISCID=310bde14
DTITLE=Wells, Junior - Messin' With The Kid: Original Masters
DYEAR=2010
DGENRE=Blues
TTITLE0=Two-Headed Woman
TTITLE1=Lovey Dovey Lovely One
TTITLE2=I Could Cry
TTITLE3=Cha Cha Cha In Blue
TTITLE4=Little By Little
TTITLE5=Come On In This House
TTITLE6=You Don't Care
TTITLE7=Prison Bars All Around Me
TTITLE8=Calling All Blues (With Earl Hooker)
TTITLE9=Messing With Kid
TTITLE10=I'm A Stranger
TTITLE11=The Things I'd Do For You
TTITLE12=It Hurts Me Too
TTITLE13=So Tired
TTITLE14=Love Me
TTITLE15=I Need Me A Car
TTITLE16=One Day (Every Goodbye Ain't Gone)
TTITLE17=I'll Get You Too
TTITLE18=She's A Sweet One
TTITLE19=When The Cat's Gone The Mice Play
EXTD=
EXTT0=
EXTT1=
EXTT2=
EXTT3=
EXTT4=
EXTT5=
EXTT6=
EXTT7=
EXTT8=
EXTT9=
EXTT10=
EXTT11=
EXTT12=
EXTT13=
EXTT14=
EXTT15=
EXTT16=
EXTT17=
EXTT18=
EXTT19=
PLAYORDER=
